<svg width="30" height="30" viewBox="0 0 30 30" fill="none" xmlns="http://www.w3.org/2000/svg">
<path fill-rule="evenodd" clip-rule="evenodd" d="M30 15C30 23.2852 23.2842 30 15 30C6.71582 30 0 23.2852 0 15C0 6.71484 6.71582 0 15 0C23.2842 0 30 6.71484 30 15ZM7.93945 8.93945C8.5249 8.35352 9.4751 8.35352 10.0605 8.93945L15 13.8789L19.9395 8.93945C20.5249 8.35352 21.4751 8.35352 22.0605 8.93945C22.6465 9.52539 22.6465 10.4746 22.0605 11.0605L17.1211 16L21.7676 20.6465C22.021 20.9004 22.1646 21.2207 22.1987 21.5508C22.2441 21.9863 22.1001 22.4355 21.7676 22.7676C21.1821 23.3535 20.2319 23.3535 19.6465 22.7676L15 18.1211L10.3535 22.7676C9.76807 23.3535 8.81787 23.3535 8.23242 22.7676C7.64648 22.1816 7.64648 21.2324 8.23242 20.6465L12.8789 16L7.93945 11.0605C7.35352 10.4746 7.35352 9.52539 7.93945 8.93945Z" fill="#A92A2A"/>
</svg>
