<svg width="500" height="500" viewBox="0 0 500 500" fill="none" xmlns="http://www.w3.org/2000/svg">
<g clip-path="url(#clip0_79_19)">
<path d="M249.583 154.316C196.631 154.316 153.919 196.999 153.919 249.916C153.919 302.833 196.631 345.516 249.583 345.516C302.536 345.516 345.248 302.833 345.248 249.916C345.248 196.999 302.536 154.316 249.583 154.316ZM249.583 312.069C215.364 312.069 187.389 284.196 187.389 249.916C187.389 215.636 215.281 187.763 249.583 187.763C283.886 187.763 311.778 215.636 311.778 249.916C311.778 284.196 283.803 312.069 249.583 312.069ZM371.474 150.405C371.474 162.802 361.483 172.703 349.161 172.703C336.755 172.703 326.848 162.719 326.848 150.405C326.848 138.091 336.839 128.107 349.161 128.107C361.483 128.107 371.474 138.091 371.474 150.405ZM434.834 173.036C433.419 143.166 426.592 116.708 404.695 94.9085C382.881 73.1093 356.404 66.2866 326.514 64.789C295.709 63.0417 203.375 63.0417 172.569 64.789C142.762 66.2034 116.286 73.0261 94.3886 94.8253C72.4915 116.625 65.7475 143.083 64.2488 172.953C62.5004 203.738 62.5004 296.01 64.2488 326.796C65.6642 356.666 72.4915 383.124 94.3886 404.923C116.286 426.723 142.679 433.545 172.569 435.043C203.375 436.79 295.709 436.79 326.514 435.043C356.404 433.628 382.881 426.806 404.695 404.923C426.508 383.124 433.336 356.666 434.834 326.796C436.583 296.01 436.583 203.821 434.834 173.036ZM395.037 359.827C388.542 376.135 375.97 388.699 359.568 395.272C335.007 405.007 276.726 402.76 249.583 402.76C222.441 402.76 164.076 404.923 139.598 395.272C123.279 388.782 110.707 376.218 104.13 359.827C94.3886 335.282 96.6366 277.04 96.6366 249.916C96.6366 222.792 94.4718 164.466 104.13 140.005C110.624 123.697 123.196 111.133 139.598 104.56C164.16 94.8253 222.441 97.0718 249.583 97.0718C276.726 97.0718 335.09 94.9085 359.568 104.56C375.887 111.05 388.459 123.614 395.037 140.005C404.778 164.55 402.53 222.792 402.53 249.916C402.53 277.04 404.778 335.366 395.037 359.827Z" fill="white"/>
</g>
<defs>
<clipPath id="clip0_79_19">
<rect width="373" height="426" fill="white" transform="translate(63 37)"/>
</clipPath>
</defs>
</svg>
