<svg width="100" height="100" viewBox="0 0 100 100" fill="none" xmlns="http://www.w3.org/2000/svg">
<g clip-path="url(#clip0_134_61)">
<mask id="path-1-inside-1_134_61" fill="white">
<path fill-rule="evenodd" clip-rule="evenodd" d="M90.0576 85.6828C95.9723 83.0554 100 77.8639 100 71.8856V20.323V6.26055C100 4.28789 99.0625 2.41289 97.4805 1.24102C95.8984 0.0496103 93.8477 -0.301952 91.9531 0.264454L29.4531 19.0145C27.9946 19.4574 26.7871 20.4023 25.9992 21.6245L45.651 41.2762L87.5 28.7215V57.159C85.5469 56.5731 83.4375 56.2606 81.25 56.2606C75.2971 56.2606 69.99 58.573 66.5547 62.18L90.0576 85.6828ZM62.9984 68.2911L82.1982 87.4909C81.8841 87.504 81.568 87.5106 81.25 87.5106C70.8984 87.5106 62.5 80.5184 62.5 71.8856C62.5 70.6485 62.6725 69.4451 62.9984 68.2911ZM38.2144 43.5072L37.5 43.7215V84.3856C37.5 93.0184 29.1016 100.011 18.75 100.011C8.39844 100.011 0 93.0184 0 84.3856C0 75.7527 8.39844 68.7606 18.75 68.7606C20.9375 68.7606 23.0469 69.0731 25 69.659V39.073V30.2927L38.2144 43.5072Z"/>
</mask>
<path fill-rule="evenodd" clip-rule="evenodd" d="M90.0576 85.6828C95.9723 83.0554 100 77.8639 100 71.8856V20.323V6.26055C100 4.28789 99.0625 2.41289 97.4805 1.24102C95.8984 0.0496103 93.8477 -0.301952 91.9531 0.264454L29.4531 19.0145C27.9946 19.4574 26.7871 20.4023 25.9992 21.6245L45.651 41.2762L87.5 28.7215V57.159C85.5469 56.5731 83.4375 56.2606 81.25 56.2606C75.2971 56.2606 69.99 58.573 66.5547 62.18L90.0576 85.6828ZM62.9984 68.2911L82.1982 87.4909C81.8841 87.504 81.568 87.5106 81.25 87.5106C70.8984 87.5106 62.5 80.5184 62.5 71.8856C62.5 70.6485 62.6725 69.4451 62.9984 68.2911ZM38.2144 43.5072L37.5 43.7215V84.3856C37.5 93.0184 29.1016 100.011 18.75 100.011C8.39844 100.011 0 93.0184 0 84.3856C0 75.7527 8.39844 68.7606 18.75 68.7606C20.9375 68.7606 23.0469 69.0731 25 69.659V39.073V30.2927L38.2144 43.5072Z" fill="white"/>
<path d="M90.0576 85.6828L89.9195 85.8209L90.0143 85.9158L90.1369 85.8613L90.0576 85.6828ZM97.4805 1.24102L97.363 1.39704L97.3642 1.39796L97.4805 1.24102ZM91.9531 0.264454L91.8972 0.0773254L91.897 0.0773785L91.9531 0.264454ZM29.4531 19.0145L29.397 18.8274L29.3964 18.8276L29.4531 19.0145ZM25.9992 21.6245L25.8351 21.5186L25.7497 21.6511L25.8611 21.7626L25.9992 21.6245ZM45.651 41.2762L45.5128 41.4143L45.5953 41.4968L45.7071 41.4633L45.651 41.2762ZM87.5 28.7215H87.6953V28.459L87.4439 28.5344L87.5 28.7215ZM87.5 57.159L87.4439 57.3461L87.6953 57.4215V57.159H87.5ZM66.5547 62.18L66.4133 62.0453L66.2819 62.1833L66.4166 62.3181L66.5547 62.18ZM62.9984 68.2911L63.1365 68.153L62.901 67.9175L62.8105 68.238L62.9984 68.2911ZM82.1982 87.4909L82.2063 87.6861L82.6511 87.6676L82.3363 87.3528L82.1982 87.4909ZM38.2144 43.5072L38.2706 43.6942L38.5838 43.6003L38.3525 43.369L38.2144 43.5072ZM37.5 43.7215L37.4439 43.5344L37.3047 43.5762V43.7215H37.5ZM25 69.659L24.9439 69.8461L25.1953 69.9215V69.659H25ZM25 30.2927L25.1381 30.1546L24.8047 29.8212V30.2927H25ZM99.8047 71.8856C99.8047 77.7695 95.8397 82.9006 89.9783 85.5043L90.1369 85.8613C96.105 83.2102 100.195 77.9582 100.195 71.8856H99.8047ZM99.8047 20.323V71.8856H100.195V20.323H99.8047ZM99.8047 6.26055V20.323H100.195V6.26055H99.8047ZM97.3642 1.39796C98.8961 2.53268 99.8047 4.34924 99.8047 6.26055H100.195C100.195 4.22654 99.2289 2.2931 97.5967 1.08407L97.3642 1.39796ZM92.0091 0.451582C93.8452 -0.0973778 95.8315 0.243668 97.363 1.39704L97.598 1.085C95.9654 -0.144447 93.8501 -0.506527 91.8972 0.0773255L92.0091 0.451582ZM29.5092 19.2015L92.0092 0.451529L91.897 0.0773785L29.397 18.8274L29.5092 19.2015ZM26.1634 21.7303C26.927 20.5459 28.097 19.6304 29.5099 19.2013L29.3964 18.8276C27.8923 19.2844 26.6473 20.2588 25.8351 21.5186L26.1634 21.7303ZM45.7891 41.1381L26.1373 21.4864L25.8611 21.7626L45.5128 41.4143L45.7891 41.1381ZM87.4439 28.5344L45.5948 41.0891L45.7071 41.4633L87.5561 28.9086L87.4439 28.5344ZM87.6953 57.159V28.7215H87.3047V57.159H87.6953ZM81.25 56.4559C83.419 56.4559 85.5094 56.7657 87.4439 57.3461L87.5561 56.9719C85.5843 56.3804 83.456 56.0652 81.25 56.0652V56.4559ZM66.6962 62.3147C70.0918 58.7493 75.3463 56.4559 81.25 56.4559V56.0652C75.2478 56.0652 69.8882 58.3966 66.4133 62.0453L66.6962 62.3147ZM90.1957 85.5447L66.6929 62.0419L66.4166 62.3181L89.9195 85.8209L90.1957 85.5447ZM62.8603 68.4292L82.0601 87.629L82.3363 87.3528L63.1365 68.153L62.8603 68.4292ZM82.1901 87.2958C81.8787 87.3087 81.5653 87.3152 81.25 87.3152V87.7059C81.5707 87.7059 81.8895 87.6992 82.2063 87.6861L82.1901 87.2958ZM81.25 87.3152C70.9714 87.3152 62.6953 80.3786 62.6953 71.8856H62.3047C62.3047 80.6581 70.8255 87.7059 81.25 87.7059V87.3152ZM62.6953 71.8856C62.6953 70.6668 62.8652 69.4812 63.1864 68.3442L62.8105 68.238C62.4797 69.4089 62.3047 70.6302 62.3047 71.8856H62.6953ZM38.1583 43.3201L37.4439 43.5344L37.5561 43.9086L38.2706 43.6942L38.1583 43.3201ZM37.3047 43.7215V84.3856H37.6953V43.7215H37.3047ZM37.3047 84.3856C37.3047 92.8786 29.0286 99.8152 18.75 99.8152V100.206C29.1745 100.206 37.6953 93.1581 37.6953 84.3856H37.3047ZM18.75 99.8152C8.47139 99.8152 0.195312 92.8786 0.195312 84.3856H-0.195312C-0.195312 93.1581 8.32548 100.206 18.75 100.206V99.8152ZM0.195312 84.3856C0.195312 75.8925 8.47139 68.9559 18.75 68.9559V68.5652C8.32548 68.5652 -0.195312 75.613 -0.195312 84.3856H0.195312ZM18.75 68.9559C20.919 68.9559 23.0094 69.2657 24.9439 69.8461L25.0561 69.4719C23.0843 68.8804 20.956 68.5652 18.75 68.5652V68.9559ZM25.1953 69.659V39.073H24.8047V69.659H25.1953ZM25.1953 39.073V30.2927H24.8047V39.073H25.1953ZM24.8619 30.4308L38.0763 43.6453L38.3525 43.369L25.1381 30.1546L24.8619 30.4308Z" fill="white" mask="url(#path-1-inside-1_134_61)"/>
<path fill-rule="evenodd" clip-rule="evenodd" d="M96.7287 97.0871C97.6058 96.2099 97.6058 94.7878 96.7287 93.9106L5.42905 2.61099C4.5519 1.73384 3.12975 1.73384 2.25259 2.61099C1.37544 3.48814 1.37544 4.91029 2.25259 5.78745L93.5522 97.0871C94.4294 97.9642 95.8515 97.9642 96.7287 97.0871Z" fill="white"/>
</g>
<defs>
<clipPath id="clip0_134_61">
<rect width="100" height="100" fill="white"/>
</clipPath>
</defs>
</svg>
