<svg width="100" height="100" viewBox="0 0 100 100" fill="none" xmlns="http://www.w3.org/2000/svg">
<g clip-path="url(#clip0_134_59)">
<path d="M97.4805 1.23125C99.0625 2.40313 100 4.27813 100 6.25078V20.3133V71.8758C100 80.5086 91.6016 87.5008 81.25 87.5008C70.8984 87.5008 62.5 80.5086 62.5 71.8758C62.5 63.243 70.8984 56.2508 81.25 56.2508C83.4375 56.2508 85.5469 56.5633 87.5 57.1492V28.7117L37.5 43.7117V84.3758C37.5 93.0086 29.1016 100.001 18.75 100.001C8.39844 100.001 0 93.0086 0 84.3758C0 75.743 8.39844 68.7508 18.75 68.7508C20.9375 68.7508 23.0469 69.0633 25 69.6492V39.0633V25.0008C25 22.2469 26.8164 19.8055 29.4531 19.0047L91.9531 0.254688C93.8477 -0.311718 95.8984 0.0398446 97.4805 1.23125Z" fill="white"/>
</g>
<defs>
<clipPath id="clip0_134_59">
<rect width="100" height="100" fill="white"/>
</clipPath>
</defs>
</svg>
