<svg width="30" height="30" viewBox="0 0 30 30" fill="none" xmlns="http://www.w3.org/2000/svg">
<path fill-rule="evenodd" clip-rule="evenodd" d="M15 30C23.2843 30 30 23.2843 30 15C30 6.71573 23.2843 0 15 0C6.71573 0 0 6.71573 0 15C0 23.2843 6.71573 30 15 30ZM25.3209 9.9363C25.9219 9.33534 25.9219 8.35938 25.3209 7.75841H25.3257C24.7248 7.15745 23.7488 7.15745 23.1478 7.75841L11.9267 18.9748L6.85938 13.9123C6.25841 13.3113 5.28245 13.3113 4.68149 13.9123C4.08053 14.5132 4.08053 15.4892 4.68149 16.0901L10.8353 22.244C11.4363 22.845 12.4123 22.845 13.0132 22.244L25.3209 9.9363Z" fill="#3FAD3D"/>
</svg>
