<svg width="500" height="500" viewBox="0 0 500 500" fill="none" xmlns="http://www.w3.org/2000/svg">
<path fill-rule="evenodd" clip-rule="evenodd" d="M454 250.5C454 363.442 362.442 455 249.5 455C136.558 455 45 363.442 45 250.5C45 137.558 136.558 46 249.5 46C362.442 46 454 137.558 454 250.5ZM104.774 164.666V292.734C115.356 345.326 205.532 356.666 249.5 355.767C293.469 356.666 383.645 345.326 394.227 292.734V164.666C391.952 161.856 386.118 157.922 380.979 164.666V215.25C374.966 192 340.293 145.533 249.703 145.395V145.395L249.5 145.395L249.298 145.395V145.395C158.708 145.533 124.035 192 118.022 215.25V164.666C112.883 157.922 107.049 161.856 104.774 164.666ZM329.993 306.784H249.703H249.298H169.008C157.499 305.446 134.482 296.025 134.482 269.046C134.482 242.068 157.499 231.576 169.008 229.703H249.298H249.703H329.993C341.501 231.576 364.519 242.068 364.519 269.046C364.519 296.025 341.501 305.446 329.993 306.784ZM174.629 285.105C183.497 285.105 190.687 277.915 190.687 269.046C190.687 260.177 183.497 252.988 174.629 252.988C165.76 252.988 158.57 260.177 158.57 269.046C158.57 277.915 165.76 285.105 174.629 285.105ZM321.964 285.105C313.095 285.105 305.905 277.915 305.905 269.046C305.905 260.177 313.095 252.988 321.964 252.988C330.833 252.988 338.022 260.177 338.022 269.046C338.022 277.915 330.833 285.105 321.964 285.105Z" fill="white"/>
</svg>
