<svg width="500" height="500" viewBox="0 0 500 500" fill="none" xmlns="http://www.w3.org/2000/svg">
<path d="M249 47.5469C136.859 47.5469 46 138.385 46 250.5C46 362.615 136.859 453.453 249 453.453C361.141 453.453 452 362.615 452 250.5C452 138.385 361.141 47.5469 249 47.5469ZM343.133 185.604C340.104 217.684 326.844 295.592 320.132 331.518C317.267 346.739 311.701 351.813 306.298 352.304C294.511 353.368 285.589 344.53 274.129 337.001C256.285 325.298 246.135 318.015 228.864 306.558C208.809 293.382 221.824 286.099 233.202 274.232C236.231 271.123 288.127 223.903 289.109 219.648C289.273 219.075 289.354 217.111 288.127 216.047C286.899 214.983 285.18 215.392 283.952 215.638C282.151 216.02 253.611 234.869 198.332 272.187C190.256 277.751 182.916 280.452 176.313 280.288C169.028 280.125 155.112 276.196 144.717 272.841C132.029 268.749 121.879 266.54 122.78 259.502C123.216 255.847 128.264 252.109 137.923 248.29C197.077 222.539 236.531 205.545 256.285 197.307C312.683 173.902 324.388 169.81 332.001 169.646C333.72 169.646 337.403 170.055 339.859 172.019C341.462 173.428 342.483 175.382 342.724 177.502C343.166 180.179 343.304 182.897 343.133 185.604Z" fill="white"/>
</svg>
