<svg width="500" height="500" viewBox="0 0 500 500" fill="none" xmlns="http://www.w3.org/2000/svg">
<g clip-path="url(#clip0_79_22)">
<path d="M419 215.475C385.576 215.546 352.975 205.102 325.804 185.616V321.462C325.796 346.621 318.115 371.179 303.788 391.849C289.461 412.52 269.171 428.319 245.632 437.133C222.093 445.947 196.427 447.356 172.067 441.171C147.706 434.986 125.813 421.503 109.315 402.524C92.8162 383.545 82.4994 359.976 79.744 334.968C76.9887 309.961 81.9261 284.707 93.8959 262.584C105.866 240.462 124.297 222.526 146.726 211.174C169.154 199.823 194.51 195.598 219.402 199.064V267.367C208.02 263.78 195.797 263.885 184.478 267.667C173.159 271.448 163.324 278.714 156.375 288.425C149.427 298.137 145.721 309.798 145.787 321.743C145.853 333.689 149.687 345.308 156.742 354.942C163.798 364.576 173.713 371.732 185.073 375.388C196.433 379.045 208.656 379.014 219.998 375.301C231.34 371.589 241.219 364.384 248.227 354.715C255.234 345.046 259.011 333.408 259.018 321.462V56H325.804C325.766 61.6547 326.249 67.3008 327.246 72.8668C329.568 85.2738 334.394 97.0763 341.427 107.553C348.46 118.03 357.554 126.961 368.152 133.8C383.238 143.775 400.921 149.085 419 149.071V215.475Z" fill="white"/>
</g>
<defs>
<clipPath id="clip0_79_22">
<rect width="340" height="389" fill="white" transform="translate(79 56)"/>
</clipPath>
</defs>
</svg>
