<svg width="500" height="500" viewBox="0 0 500 500" fill="none" xmlns="http://www.w3.org/2000/svg">
<g clip-path="url(#clip0_79_25)">
<path d="M406.523 169.738C406.754 173.201 406.754 176.741 406.754 180.204C406.754 286.938 325.491 409.986 176.971 409.986C131.184 409.986 88.7063 396.75 53 373.741C59.4641 374.51 65.7742 374.741 72.4691 374.741C110.253 374.741 144.959 361.967 172.739 340.266C137.264 339.496 107.483 316.257 97.248 284.244C102.25 285.014 107.252 285.475 112.485 285.475C119.718 285.475 126.952 284.475 133.724 282.705C96.7094 275.241 69.0062 242.689 69.0062 203.443V202.443C79.7797 208.445 92.2461 212.216 105.482 212.678C83.7043 198.211 69.468 173.432 69.468 145.421C69.468 130.415 73.4695 116.64 80.4723 104.636C120.257 153.655 179.973 185.667 246.999 189.13C245.768 183.128 244.998 176.895 244.998 170.661C244.998 126.182 281.012 89.9375 325.722 89.9375C348.962 89.9375 369.97 99.7105 384.745 115.409C402.983 111.946 420.528 105.174 435.996 95.9398C429.993 114.716 417.219 130.415 400.52 140.419C416.757 138.649 432.533 134.186 447 127.952C435.996 143.959 422.221 158.195 406.523 169.738Z" fill="white"/>
</g>
<defs>
<clipPath id="clip0_79_25">
<rect width="394" height="394" fill="white" transform="translate(53 53)"/>
</clipPath>
</defs>
</svg>
