<svg width="500" height="500" viewBox="0 0 500 500" fill="none" xmlns="http://www.w3.org/2000/svg">
<g clip-path="url(#clip0_79_19)">
<path d="M57.9137 91.3717C69.7445 86.9276 83.0092 92.9487 87.4547 104.776L166.47 315.514L227.488 106.424C230.356 96.6043 239.318 89.9381 249.5 89.9381C259.681 89.9381 268.644 96.676 271.512 106.424L332.53 315.514L411.545 104.848C415.99 93.0204 429.184 86.9993 441.086 91.4434C452.988 95.8875 458.94 109.148 454.494 120.975L351.244 396.225C347.802 405.472 338.768 411.493 328.873 411.063C318.979 410.633 310.446 404.038 307.721 394.577L249.5 194.806L191.207 394.577C188.41 404.038 179.878 410.705 170.055 411.063C160.232 411.421 151.197 405.472 147.684 396.225L44.4339 120.904C39.9884 109.077 46.0113 95.8159 57.9137 91.3717Z" fill="white"/>
</g>
<defs>
<clipPath id="clip0_79_19">
<rect width="413" height="367" fill="white" transform="translate(43 67)"/>
</clipPath>
</defs>
</svg>
